<svg id="Layer_1" enable-background="new 0 0 512 512" height="512" viewBox="0 0 512 512" width="512" xmlns="http://www.w3.org/2000/svg"><g><g><g><g id="XMLID_1769_"><g id="XMLID_1770_"><g id="XMLID_1771_"><g id="XMLID_1772_"><g id="XMLID_1773_"><g id="XMLID_1774_"><g id="XMLID_1775_"><g id="XMLID_1776_"><g id="XMLID_1777_"><g id="XMLID_1778_"><g id="XMLID_1779_"><g id="XMLID_1780_"><g id="XMLID_1926_"><g id="XMLID_1927_"><g id="XMLID_1938_"><circle cx="256" cy="256" fill="#ffdd54" r="256"/></g></g></g></g></g></g></g></g></g></g></g></g></g></g></g></g></g><path d="m512 256c0-24.545-3.462-48.281-9.911-70.753l-103.505-103.505-280.149 353.535 66.812 66.812c22.472 6.45 46.208 9.911 70.753 9.911 141.385 0 256-114.615 256-256z" fill="#ecbe00"/><g><g><path d="m378.6 440.337h-245.2c-13.931 0-25.329-11.695-25.329-25.988v-316.698c0-14.294 11.398-25.988 25.329-25.988h60.059l62.541 24.255 62.54-24.256h60.06c13.931 0 25.329 11.695 25.329 25.988v316.698c-.001 14.295-11.398 25.989-25.329 25.989z" fill="#494949"/><path d="m403.93 97.65v316.7c0 14.29-11.4 25.99-25.33 25.99h-122.6v-344.42l62.54-24.26h60.06c13.93 0 25.33 11.7 25.33 25.99z" fill="#2d2d2d"/><path d="m140.561 110.008h230.879v285.695h-230.879z" fill="#fff"/><path d="m256 110.01h115.44v285.69h-115.44z" fill="#f1f4f6"/><g><g><path d="m290.251 147.812h-68.502c-15.599 0-28.29-12.69-28.29-28.289v-47.86h125.081v47.86c0 15.599-12.69 28.289-28.289 28.289z" fill="#ff4d05"/></g></g><g><g><g><path d="m318.54 71.66v47.86c0 15.6-12.69 28.29-28.29 28.29h-34.25v-76.15z" fill="#c30047"/></g></g></g></g><g><g><path d="m174.811 181.754h44.988v30h-44.988z" fill="#00e4ef"/></g></g><g><g><path d="m256 181.754h80.365v30h-80.365z" fill="#5ecbf1"/></g></g><g><path d="m291.377 247.076h44.988v30h-44.988z" fill="#5ecbf1"/></g><g><g><path d="m174.811 247.076h81.189v30h-81.189z" fill="#00e4ef"/></g></g><g><g><path d="m174.811 312.398h44.988v30h-44.988z" fill="#00e4ef"/></g></g><g><g><path d="m256 312.398h80.365v30h-80.365z" fill="#5ecbf1"/></g></g></g></g></svg>